<svg width="257" height="48" fill="none" xmlns="http://www.w3.org/2000/svg">
  <g clip-path="url('#clip0_13_841')">
    <path d="M2.385 19.21c-.17.893.86 2.642 1.74 2.98 3.487 1.337 5.194 4.292 7.04 7.1.774 1.173 1.333.937 2.055.279.803-.738 1.932-1.48 2.179-2.41.907-3.483 3.985-2.344 6.126-3.114 3.539-1.274 4.806 1.722 5.987 3.85 1.107 1.988 2.265 4.383.428 7.032 6.234-1.984 8.72-1.81 8.359 5.044-.077 1.498 1.335 1.519 1.946 1.727 2.4.815 3.093-3.675 6.12-2.161.503.249.648-1.68 1.098-2.544.195-.384.236-.694-.004-1.176-.948-1.888-.878-2.041 1.292-1.706.903.14 1.555-.363 1.088-.693-2.299-1.636.272-5.105-2.593-6.44-.312-.143-.527-1.102-.364-1.52.83-2.17.03-3.805-.7-5.94-1.237-3.662-3.464-6.812-4.577-10.491-.387-1.272-1.516-3.37-3.225-.403-.57.989-2.279 2.018-4.007.982-2.166-1.294-4.327 1.989-6.818.088-.37-.283-2.216 1.034-2.048-1.294.059-.806-.765-.7-1.234-.604-3.914.773-7.533-.304-11.18-1.535C9.538 5.736 6.69 8.69 7.54 9.927c1.59 2.32.489 2.453-1.48 2.734-2.426.35-4.286 1.357-5.666 3.835-1.639 2.965 2.33.865 1.991 2.713Z" fill="#2A4A72"/>
  </g>
  <path d="M79.202 20H64.99v-.836c.513-.015.924-.059 1.232-.132.323-.073.572-.198.748-.374.176-.176.293-.425.352-.748a7.25 7.25 0 0 0 .088-1.254V6.404c0-.513-.03-.924-.088-1.232-.044-.323-.147-.572-.308-.748-.147-.19-.367-.315-.66-.374a6.554 6.554 0 0 0-1.144-.154V3.06h6.688v.836a5.63 5.63 0 0 0-1.144.132 1.255 1.255 0 0 0-.66.396c-.147.19-.25.455-.308.792a10.84 10.84 0 0 0-.066 1.342v9.482c0 .616.059 1.122.176 1.518.132.381.345.682.638.902.308.205.711.352 1.21.44.499.073 1.13.11 1.892.11.836 0 1.54-.044 2.112-.132.572-.103 1.049-.271 1.43-.506a2.57 2.57 0 0 0 .924-1.012c.235-.44.433-1.005.594-1.694h.836L79.202 20Zm10.968-8.14c0-.601-.014-1.07-.044-1.408-.029-.352-.11-.616-.242-.792a.838.838 0 0 0-.55-.374 5.332 5.332 0 0 0-.99-.176v-.77h3.982v6.754c0 .836.008 1.518.022 2.046.03.528.066.924.11 1.188.03.19.074.345.132.462.074.103.176.19.308.264.132.059.301.103.506.132.22.015.499.022.836.022v.77l-3.63.264-.242-2.64h-.088c-.557.91-1.202 1.577-1.936 2.002a4.5 4.5 0 0 1-2.266.616 4.816 4.816 0 0 1-1.804-.352c-.572-.235-1.004-.55-1.298-.946-.249-.323-.432-.77-.55-1.342-.102-.572-.154-1.313-.154-2.222V11.86c0-.601-.014-1.07-.044-1.408-.029-.352-.11-.616-.242-.792a.838.838 0 0 0-.55-.374 5.332 5.332 0 0 0-.99-.176v-.77h3.982v6.006c0 1.599.184 2.757.55 3.476.382.719.983 1.078 1.804 1.078 1.291 0 2.296-.843 3.014-2.53a3.96 3.96 0 0 0 .286-.968c.03-.176.052-.374.066-.594a12.2 12.2 0 0 0 .022-.792V11.86Zm13.177-.924c.352-.44.528-.814.528-1.122 0-.47-.433-.704-1.298-.704v-.77h4.818v.77c-.264 0-.506.03-.726.088a2.307 2.307 0 0 0-.616.286 3.443 3.443 0 0 0-.638.55c-.206.22-.44.499-.704.836l-2.266 2.882 2.926 3.85c.454.601.872 1.027 1.254 1.276.396.235.814.352 1.254.352V20h-5.852v-.77c.528 0 .894-.037 1.1-.11.205-.088.308-.25.308-.484 0-.103-.066-.25-.198-.44a8.808 8.808 0 0 0-.616-.88l-1.54-1.98-1.87 2.376c-.22.264-.33.528-.33.792 0 .205.088.381.264.528.176.132.454.198.836.198V20h-5.038v-.77c.337 0 .638-.03.902-.088.264-.059.513-.161.748-.308.249-.147.498-.352.748-.616.264-.264.557-.594.88-.99l2.244-2.75-2.926-4.158c-.338-.47-.646-.785-.924-.946-.279-.176-.631-.264-1.056-.264v-.77h5.412v.77c-.396 0-.682.051-.858.154-.176.088-.264.213-.264.374 0 .22.139.528.418.924l1.584 2.31 1.496-1.936Zm14.968.924c0-.601-.015-1.07-.044-1.408-.029-.352-.11-.616-.242-.792-.117-.19-.301-.315-.55-.374a5.364 5.364 0 0 0-.99-.176v-.77h3.982v6.754c0 .836.007 1.518.022 2.046.029.528.066.924.11 1.188.029.19.073.345.132.462.073.103.176.19.308.264.132.059.301.103.506.132.22.015.499.022.836.022v.77l-3.63.264-.242-2.64h-.088c-.557.91-1.203 1.577-1.936 2.002a4.501 4.501 0 0 1-2.266.616 4.817 4.817 0 0 1-1.804-.352c-.572-.235-1.005-.55-1.298-.946-.249-.323-.433-.77-.55-1.342-.103-.572-.154-1.313-.154-2.222V11.86c0-.601-.015-1.07-.044-1.408-.029-.352-.11-.616-.242-.792-.117-.19-.301-.315-.55-.374a5.364 5.364 0 0 0-.99-.176v-.77h3.982v6.006c0 1.599.183 2.757.55 3.476.381.719.983 1.078 1.804 1.078 1.291 0 2.295-.843 3.014-2.53a3.899 3.899 0 0 0 .286-.968c.029-.176.051-.374.066-.594.015-.22.022-.484.022-.792V11.86Zm9.436 4.642c0 .601.015 1.078.044 1.43.03.352.103.623.22.814a.953.953 0 0 0 .55.352c.235.059.565.103.99.132V20h-5.852v-.77a5.419 5.419 0 0 0 1.012-.11c.25-.073.44-.198.572-.374.132-.176.213-.425.242-.748.044-.337.066-.785.066-1.342v-2.574c0-.997-.014-1.775-.044-2.332-.014-.557-.088-.968-.22-1.232-.117-.264-.308-.418-.572-.462-.264-.059-.63-.088-1.1-.088v-.77l3.85-.836.308 2.728h.088a5.85 5.85 0 0 1 .704-1.21 5.13 5.13 0 0 1 .946-.924c.338-.264.69-.47 1.056-.616a3 3 0 0 1 1.122-.22c.47 0 .836.117 1.1.352.279.22.418.52.418.902 0 .352-.11.63-.33.836-.22.19-.535.286-.946.286-.234 0-.432-.03-.594-.088a6.94 6.94 0 0 1-.44-.176 4.116 4.116 0 0 0-.352-.198.695.695 0 0 0-.352-.088c-.396 0-.792.257-1.188.77-.396.499-.704 1.137-.924 1.914-.117.425-.212.91-.286 1.452a15.32 15.32 0 0 0-.088 1.672v.748Zm11.783 6.952c-.675 1.51-1.724 2.266-3.146 2.266-.924 0-1.386-.345-1.386-1.034 0-.367.124-.638.374-.814.264-.161.74-.3 1.43-.418.308-.044.572-.11.792-.198.22-.073.418-.176.594-.308a1.72 1.72 0 0 0 .462-.462c.146-.19.286-.425.418-.704l.77-1.54-4.224-9.174a9.415 9.415 0 0 0-.506-.968 1.843 1.843 0 0 0-.44-.572 1.04 1.04 0 0 0-.506-.286 3.825 3.825 0 0 0-.726-.132v-.77h5.83v.77c-.983 0-1.474.242-1.474.726 0 .19.058.491.176.902.117.41.264.829.44 1.254l2.42 5.852h.11l2.002-4.95c.19-.484.344-.88.462-1.188.132-.308.227-.557.286-.748a2.39 2.39 0 0 0 .132-.506 1.75 1.75 0 0 0 .044-.374c0-.381-.11-.638-.33-.77-.206-.132-.609-.198-1.21-.198v-.77h4.84v.77c-.279 0-.514.037-.704.11-.191.073-.389.242-.594.506-.191.25-.411.616-.66 1.1a47.933 47.933 0 0 0-.88 1.958l-4.796 10.67Zm21.614-16.148c0 .777-.125 1.474-.374 2.09a3.739 3.739 0 0 1-1.188 1.562c-.528.425-1.225.755-2.09.99-.851.235-1.892.352-3.124.352h-1.98v4.246c0 .543.029.99.088 1.342.073.337.213.601.418.792.22.19.528.323.924.396.411.059.946.088 1.606.088V20h-7.766v-.836c.513-.015.924-.059 1.232-.132.323-.073.572-.198.748-.374.176-.176.293-.425.352-.748a7.22 7.22 0 0 0 .088-1.254V6.404c0-.513-.029-.924-.088-1.232-.044-.323-.147-.572-.308-.748-.147-.19-.367-.315-.66-.374a6.554 6.554 0 0 0-1.144-.154V3.06h6.908c2.024 0 3.586.374 4.686 1.122 1.115.748 1.672 1.79 1.672 3.124Zm-8.756 3.894h1.562c1.467 0 2.552-.279 3.256-.836.719-.572 1.078-1.503 1.078-2.794 0-1.247-.286-2.134-.858-2.662-.557-.543-1.437-.814-2.64-.814h-2.024c-.249 0-.374.125-.374.374V11.2Zm16.804 2.288c-.836.323-1.548.638-2.134.946-.572.308-1.034.616-1.386.924-.352.308-.609.616-.77.924-.147.308-.22.623-.22.946 0 .484.161.88.484 1.188.322.308.748.462 1.276.462a2.04 2.04 0 0 0 1.056-.286c.337-.19.63-.447.88-.77a4.17 4.17 0 0 0 .594-1.166c.146-.455.22-.931.22-1.43v-1.738Zm0-.946v-.902c0-1.79-.763-2.684-2.288-2.684-.25 0-.462.022-.638.066a1.036 1.036 0 0 0-.44.22c-.118.103-.228.25-.33.44-.088.19-.176.425-.264.704-.162.425-.323.711-.484.858-.147.132-.367.198-.66.198-.734 0-1.1-.367-1.1-1.1 0-.704.374-1.247 1.122-1.628.748-.396 1.811-.594 3.19-.594 1.466 0 2.508.264 3.124.792.616.513.924 1.393.924 2.64v4.928c0 1.672.33 2.508.99 2.508.205 0 .403-.022.594-.066.19-.059.352-.198.484-.418l.308.528c-.176.337-.499.623-.968.858-.47.22-.961.33-1.474.33-.646 0-1.13-.205-1.452-.616-.308-.41-.462-.99-.462-1.738h-.11a4.473 4.473 0 0 1-1.584 1.716 4.233 4.233 0 0 1-2.244.616c-.924 0-1.65-.235-2.178-.704-.528-.47-.792-1.1-.792-1.892 0-.352.058-.69.176-1.012.132-.323.337-.63.616-.924.278-.293.645-.58 1.1-.858a12.356 12.356 0 0 1 1.672-.88l3.168-1.386Zm5.383-2.816v-.814c.778-.455 1.386-.91 1.826-1.364.44-.455.778-.997 1.012-1.628h.638v2.772h2.948v1.034h-2.948v6.688c0 .513.022.946.066 1.298.059.352.147.638.264.858.118.205.272.352.462.44.191.088.433.132.726.132.367 0 .675-.073.924-.22.264-.161.521-.425.77-.792l.55.418c-.205.543-.564.96-1.078 1.254-.498.279-1.122.418-1.87.418-.968 0-1.708-.227-2.222-.682-.498-.47-.748-1.137-.748-2.002v-7.81h-1.32Zm15.113 3.762c-.836.323-1.548.638-2.134.946-.572.308-1.034.616-1.386.924-.352.308-.609.616-.77.924-.147.308-.22.623-.22.946 0 .484.161.88.484 1.188.322.308.748.462 1.276.462a2.04 2.04 0 0 0 1.056-.286c.337-.19.63-.447.88-.77a4.17 4.17 0 0 0 .594-1.166c.146-.455.22-.931.22-1.43v-1.738Zm0-.946v-.902c0-1.79-.763-2.684-2.288-2.684-.25 0-.462.022-.638.066a1.036 1.036 0 0 0-.44.22c-.118.103-.228.25-.33.44-.088.19-.176.425-.264.704-.162.425-.323.711-.484.858-.147.132-.367.198-.66.198-.734 0-1.1-.367-1.1-1.1 0-.704.374-1.247 1.122-1.628.748-.396 1.811-.594 3.19-.594 1.466 0 2.508.264 3.124.792.616.513.924 1.393.924 2.64v4.928c0 1.672.33 2.508.99 2.508.205 0 .403-.022.594-.066.19-.059.352-.198.484-.418l.308.528c-.176.337-.499.623-.968.858-.47.22-.961.33-1.474.33-.646 0-1.13-.205-1.452-.616-.308-.41-.462-.99-.462-1.738h-.11a4.473 4.473 0 0 1-1.584 1.716 4.233 4.233 0 0 1-2.244.616c-.924 0-1.65-.235-2.178-.704-.528-.47-.792-1.1-.792-1.892 0-.352.058-.69.176-1.012.132-.323.337-.63.616-.924.278-.293.645-.58 1.1-.858a12.356 12.356 0 0 1 1.672-.88l3.168-1.386Zm10.531 2.728c.616 0 1.093-.279 1.43-.836.352-.557.528-1.342.528-2.354 0-.997-.176-1.767-.528-2.31-.337-.557-.821-.836-1.452-.836-.63 0-1.136.279-1.518.836-.366.557-.55 1.32-.55 2.288 0 .968.191 1.745.572 2.332.382.587.888.88 1.518.88Zm-1.21 2.574c.352.03.675.059.968.088l.858.088c.294.03.58.066.858.11.294.044.609.088.946.132 1.056.161 1.9.572 2.53 1.232.646.645.968 1.46.968 2.442 0 1.232-.491 2.17-1.474 2.816-.968.645-2.376.968-4.224.968-.821 0-1.576-.073-2.266-.22-.674-.147-1.254-.36-1.738-.638-.484-.264-.865-.587-1.144-.968a2.156 2.156 0 0 1-.396-1.254 2.36 2.36 0 0 1 .572-1.562 2.13 2.13 0 0 1 .616-.462c.25-.117.506-.176.77-.176.499 0 .946.154 1.342.462-.396.088-.718.3-.968.638a2.009 2.009 0 0 0-.374 1.188c0 .645.316 1.144.946 1.496.646.352 1.555.528 2.728.528 2.508 0 3.762-.77 3.762-2.31 0-.587-.198-1.078-.594-1.474a2.455 2.455 0 0 0-1.408-.682 39.531 39.531 0 0 1-1.1-.154l-1.1-.132a33.88 33.88 0 0 0-.99-.11c-.308-.03-.557-.059-.748-.088-.821-.088-1.444-.308-1.87-.66-.425-.352-.638-.836-.638-1.452 0-.513.213-.968.638-1.364.426-.396.961-.645 1.606-.748v-.088a3.4 3.4 0 0 1-.902-.55 4.419 4.419 0 0 1-.726-.836 4.76 4.76 0 0 1-.462-.99 3.67 3.67 0 0 1-.176-1.122c0-.557.103-1.07.308-1.54.22-.47.521-.873.902-1.21a4.22 4.22 0 0 1 1.386-.814 4.759 4.759 0 0 1 1.738-.308c.646 0 1.254.103 1.826.308.572.19 1.064.477 1.474.858.499-.41.939-.704 1.32-.88.382-.19.741-.286 1.078-.286.528 0 .946.125 1.254.374.323.235.484.557.484.968 0 .25-.088.447-.264.594a.879.879 0 0 1-.616.22c-.205 0-.374-.037-.506-.11a8.839 8.839 0 0 1-.374-.22 2.626 2.626 0 0 0-.33-.242.815.815 0 0 0-.44-.11c-.352 0-.711.125-1.078.374.352.543.528 1.225.528 2.046 0 1.247-.388 2.23-1.166 2.948-.777.704-1.943 1.115-3.498 1.232-.894.073-1.518.169-1.87.286-.352.117-.528.33-.528.638 0 .235.132.41.396.528.264.103.653.169 1.166.198Zm15.395-9.724c.836 0 1.628.154 2.376.462a6 6 0 0 1 1.958 1.232 5.632 5.632 0 0 1 1.342 1.892c.337.719.506 1.51.506 2.376 0 .895-.169 1.716-.506 2.464a5.811 5.811 0 0 1-1.342 1.936 6.117 6.117 0 0 1-1.958 1.276 6.179 6.179 0 0 1-2.376.462 6.388 6.388 0 0 1-2.354-.44 6.163 6.163 0 0 1-1.936-1.276 5.949 5.949 0 0 1-1.32-1.936 6.309 6.309 0 0 1-.484-2.486c0-.865.161-1.665.484-2.398a5.762 5.762 0 0 1 1.32-1.892 6.045 6.045 0 0 1 1.936-1.232 6.388 6.388 0 0 1 2.354-.44Zm0 1.056a3.21 3.21 0 0 0-1.496.352c-.44.235-.822.572-1.144 1.012-.308.425-.55.946-.726 1.562a7.693 7.693 0 0 0-.242 2.002c0 .763.08 1.452.242 2.068.176.616.418 1.144.726 1.584.322.425.704.755 1.144.99.44.235.938.352 1.496.352.557 0 1.063-.117 1.518-.352a3.342 3.342 0 0 0 1.166-1.012c.322-.44.572-.968.748-1.584a7.434 7.434 0 0 0 .264-2.046c0-.733-.088-1.4-.264-2.002a4.723 4.723 0 0 0-.748-1.54 3.342 3.342 0 0 0-1.166-1.012 3.106 3.106 0 0 0-1.518-.374Zm11.996 7.37c0 .601.015 1.078.044 1.43.03.337.103.601.22.792a.953.953 0 0 0 .55.352c.25.059.587.103 1.012.132V20h-5.764v-.748c.411-.03.734-.073.968-.132a.958.958 0 0 0 .572-.352c.132-.176.213-.425.242-.748.044-.323.066-.763.066-1.32v-2.926c0-1.745-.044-2.809-.132-3.19a1.503 1.503 0 0 0-.176-.462.543.543 0 0 0-.286-.286 1.215 1.215 0 0 0-.506-.132 5.79 5.79 0 0 0-.792-.044v-.704l3.52-.836.264 2.178h.088a6.027 6.027 0 0 1 1.958-1.606 5.299 5.299 0 0 1 2.442-.572c.675 0 1.291.11 1.848.33.558.22.983.52 1.276.902.25.337.426.777.528 1.32.103.528.154 1.261.154 2.2v3.674c0 .601.015 1.078.044 1.43.044.337.125.601.242.792a.858.858 0 0 0 .528.352c.25.059.572.103.968.132V20h-5.698v-.748c.411-.015.734-.051.968-.11.25-.073.433-.198.55-.374.132-.176.213-.425.242-.748.044-.337.066-.777.066-1.32v-2.904c0-.836-.044-1.54-.132-2.112-.088-.572-.234-1.034-.44-1.386-.19-.352-.447-.601-.77-.748-.322-.161-.711-.242-1.166-.242-.66 0-1.268.176-1.826.528a3.497 3.497 0 0 0-1.276 1.408c-.073.147-.139.286-.198.418a3.15 3.15 0 0 0-.11.462 6.316 6.316 0 0 0-.066.616c-.014.22-.022.506-.022.858v2.948Zm15.432-.044c0 .572.022 1.034.066 1.386.059.337.162.609.308.814.147.19.352.323.616.396.264.073.616.117 1.056.132V20h-6.314v-.77c.44-.015.8-.059 1.078-.132.279-.088.492-.22.638-.396.162-.19.264-.447.308-.77a7.62 7.62 0 0 0 .088-1.276V13.84c0-.85-.014-1.547-.044-2.09-.014-.557-.051-.939-.11-1.144-.073-.337-.242-.565-.506-.682-.264-.132-.762-.198-1.496-.198v-.77l4.312-.836v8.382Zm-2.53-12.848c0-.381.132-.704.396-.968s.587-.396.968-.396c.382 0 .704.132.968.396s.396.587.396.968-.132.704-.396.968a1.316 1.316 0 0 1-.968.396c-.381 0-.704-.132-.968-.396a1.317 1.317 0 0 1-.396-.968Zm12.69 9.834c-.836.323-1.547.638-2.134.946-.572.308-1.034.616-1.386.924-.352.308-.608.616-.77.924-.146.308-.22.623-.22.946 0 .484.162.88.484 1.188.323.308.748.462 1.276.462.382 0 .734-.095 1.056-.286.338-.19.631-.447.88-.77.25-.337.448-.726.594-1.166a4.62 4.62 0 0 0 .22-1.43v-1.738Zm0-.946v-.902c0-1.79-.762-2.684-2.288-2.684-.249 0-.462.022-.638.066a1.042 1.042 0 0 0-.44.22c-.117.103-.227.25-.33.44-.088.19-.176.425-.264.704-.161.425-.322.711-.484.858-.146.132-.366.198-.66.198-.733 0-1.1-.367-1.1-1.1 0-.704.374-1.247 1.122-1.628.748-.396 1.812-.594 3.19-.594 1.467 0 2.508.264 3.124.792.616.513.924 1.393.924 2.64v4.928c0 1.672.33 2.508.99 2.508.206 0 .404-.022.594-.066.191-.059.352-.198.484-.418l.308.528c-.176.337-.498.623-.968.858-.469.22-.96.33-1.474.33-.645 0-1.129-.205-1.452-.616-.308-.41-.462-.99-.462-1.738h-.11a4.458 4.458 0 0 1-1.584 1.716 4.228 4.228 0 0 1-2.244.616c-.924 0-1.65-.235-2.178-.704-.528-.47-.792-1.1-.792-1.892 0-.352.059-.69.176-1.012a3.01 3.01 0 0 1 .616-.924c.279-.293.646-.58 1.1-.858a12.417 12.417 0 0 1 1.672-.88l3.168-1.386ZM81.292 31.262h-.902c-.044-.63-.147-1.159-.308-1.584-.161-.425-.396-.755-.704-.99-.293-.25-.667-.425-1.122-.528-.455-.103-.997-.154-1.628-.154-.543 0-.983.015-1.32.044-.323.015-.572.051-.748.11-.176.059-.293.132-.352.22a.6.6 0 0 0-.066.308v11.77c0 .47.03.873.088 1.21.073.337.205.616.396.836.205.205.491.367.858.484.381.103.88.161 1.496.176V44h-8.316v-.836c.616-.015 1.115-.073 1.496-.176.381-.117.667-.279.858-.484a1.6 1.6 0 0 0 .396-.836c.073-.337.11-.74.11-1.21v-11.77a.481.481 0 0 0-.088-.308c-.044-.088-.147-.161-.308-.22-.147-.059-.36-.095-.638-.11a11.06 11.06 0 0 0-1.122-.044c-.572 0-1.107.022-1.606.066-.484.044-.91.176-1.276.396-.352.205-.638.528-.858.968-.22.44-.337 1.049-.352 1.826h-.814V27.06h16.61l.22 4.202Zm3.662 9.24c0 .601.015 1.078.044 1.43.03.352.103.623.22.814a.95.95 0 0 0 .55.352c.235.059.565.103.99.132V44h-5.852v-.77a5.43 5.43 0 0 0 1.012-.11c.25-.073.44-.198.572-.374.132-.176.213-.425.242-.748.044-.337.066-.785.066-1.342v-2.574c0-.997-.014-1.775-.044-2.332-.014-.557-.088-.968-.22-1.232-.117-.264-.308-.418-.572-.462-.264-.059-.63-.088-1.1-.088v-.77l3.85-.836.308 2.728h.088c.191-.44.426-.843.704-1.21a5.11 5.11 0 0 1 .946-.924 4.31 4.31 0 0 1 1.056-.616c.367-.147.741-.22 1.122-.22.47 0 .836.117 1.1.352.279.22.418.52.418.902 0 .352-.11.63-.33.836-.22.19-.535.286-.946.286-.234 0-.432-.03-.594-.088a6.869 6.869 0 0 1-.44-.176 4.274 4.274 0 0 0-.352-.198.697.697 0 0 0-.352-.088c-.396 0-.792.257-1.188.77-.396.499-.704 1.137-.924 1.914-.117.425-.212.91-.286 1.452a15.146 15.146 0 0 0-.088 1.672v.748Zm13.279-3.014c-.836.323-1.548.638-2.134.946-.572.308-1.034.616-1.386.924-.352.308-.609.616-.77.924-.147.308-.22.623-.22.946 0 .484.161.88.484 1.188.322.308.748.462 1.276.462.381 0 .733-.095 1.056-.286.337-.19.63-.447.88-.77a4.17 4.17 0 0 0 .594-1.166c.146-.455.22-.931.22-1.43v-1.738Zm0-.946v-.902c0-1.79-.763-2.684-2.288-2.684-.25 0-.462.022-.638.066a1.037 1.037 0 0 0-.44.22c-.118.103-.228.25-.33.44-.088.19-.176.425-.264.704-.162.425-.323.711-.484.858-.147.132-.367.198-.66.198-.734 0-1.1-.367-1.1-1.1 0-.704.374-1.247 1.122-1.628.748-.396 1.811-.594 3.19-.594 1.466 0 2.508.264 3.124.792.616.513.924 1.393.924 2.64v4.928c0 1.672.33 2.508.99 2.508.205 0 .403-.022.594-.066.19-.059.352-.198.484-.418l.308.528c-.176.337-.499.623-.968.858-.47.22-.961.33-1.474.33-.646 0-1.13-.205-1.452-.616-.308-.41-.462-.99-.462-1.738h-.11a4.462 4.462 0 0 1-1.584 1.716 4.232 4.232 0 0 1-2.244.616c-.924 0-1.65-.235-2.178-.704-.528-.47-.792-1.1-.792-1.892 0-.352.058-.69.176-1.012.132-.323.337-.63.616-.924.278-.293.645-.58 1.1-.858a12.399 12.399 0 0 1 1.672-.88l3.168-1.386Zm6.362-1.474a7.985 7.985 0 0 0-.484-1.034c-.132-.264-.279-.462-.44-.594a1.102 1.102 0 0 0-.55-.242 4.184 4.184 0 0 0-.704-.088v-.77h5.83v.77c-.294.015-.536.03-.726.044a1.254 1.254 0 0 0-.462.11.403.403 0 0 0-.22.22c-.044.088-.066.22-.066.396 0 .25.029.484.088.704l.22.66 2.332 6.38h.088l2.002-4.73c.308-.733.528-1.32.66-1.76.132-.44.198-.829.198-1.166 0-.337-.088-.565-.264-.682-.176-.117-.558-.176-1.144-.176v-.77h4.378v.77a1.19 1.19 0 0 0-.638.176c-.191.117-.36.264-.506.44a4.158 4.158 0 0 0-.374.66l-.374.836c-.118.293-.228.587-.33.88a6.975 6.975 0 0 1-.286.682l-3.234 7.458h-1.276l-3.718-9.174Zm22.129 6.886c-1.246 1.51-2.794 2.266-4.642 2.266-.865 0-1.65-.14-2.354-.418a5.6 5.6 0 0 1-1.826-1.21 5.698 5.698 0 0 1-1.166-1.87c-.278-.733-.418-1.54-.418-2.42 0-.895.147-1.723.44-2.486a5.716 5.716 0 0 1 1.232-1.958 5.922 5.922 0 0 1 1.914-1.276 6.352 6.352 0 0 1 2.442-.462c1.423 0 2.523.389 3.3 1.166.778.763 1.166 1.863 1.166 3.3 0 .205-.044.33-.132.374-.073.044-.256.066-.55.066h-7.238a2.904 2.904 0 0 0-.066.44 6.394 6.394 0 0 0-.022.55c0 .763.088 1.46.264 2.09.191.616.455 1.144.792 1.584.352.44.763.785 1.232 1.034a3.63 3.63 0 0 0 1.606.352c.616 0 1.188-.132 1.716-.396.528-.279 1.071-.726 1.628-1.342l.682.616Zm-3.63-5.94c.294 0 .528-.007.704-.022.176-.015.308-.044.396-.088a.341.341 0 0 0 .176-.176c.03-.088.044-.198.044-.33 0-.675-.22-1.21-.66-1.606-.425-.41-1.012-.616-1.76-.616-1.584 0-2.566.946-2.948 2.838h4.048Zm9.356 4.554c0 .557.022 1.005.066 1.342.044.337.132.601.264.792.146.19.344.323.594.396.264.073.608.117 1.034.132V44h-6.072v-.77c.44-.015.792-.059 1.056-.132.264-.088.469-.22.616-.396.161-.176.264-.418.308-.726a7.32 7.32 0 0 0 .088-1.254V31.24c0-.792-.015-1.452-.044-1.98-.015-.543-.044-.91-.088-1.1-.074-.337-.25-.565-.528-.682-.264-.117-.748-.176-1.452-.176v-.748l4.158-.814v14.828ZM136.898 44h-.484v-3.784h.55c.572 2.068 1.613 3.102 3.124 3.102.587 0 1.049-.14 1.386-.418.352-.293.528-.733.528-1.32 0-.22-.037-.403-.11-.55-.059-.161-.183-.323-.374-.484a4.906 4.906 0 0 0-.77-.594c-.323-.22-.755-.499-1.298-.836a22.277 22.277 0 0 1-1.298-.858 6.424 6.424 0 0 1-.924-.792 3.238 3.238 0 0 1-.572-.88 3.028 3.028 0 0 1-.176-1.078c0-.499.081-.953.242-1.364.176-.425.411-.785.704-1.078a3.11 3.11 0 0 1 1.034-.682 3.16 3.16 0 0 1 1.298-.264c.396 0 .807.066 1.232.198.425.117.799.279 1.122.484l.44-.462h.418v3.168h-.572c-.323-.895-.675-1.533-1.056-1.914a1.914 1.914 0 0 0-1.408-.572c-.499 0-.902.132-1.21.396-.293.264-.44.63-.44 1.1 0 .25.037.47.11.66.088.176.22.352.396.528.176.176.396.36.66.55.279.176.609.381.99.616.631.396 1.166.748 1.606 1.056.455.308.821.616 1.1.924.279.293.484.601.616.924.132.323.198.69.198 1.1 0 1.041-.337 1.863-1.012 2.464-.675.587-1.562.88-2.662.88-1.144 0-2.127-.33-2.948-.99l-.44.77Z" fill="#fff"/>
  <defs>
    <clipPath id="clip0_13_841">
      <path fill="#fff" d="M0 0h48v48H0z"/>
    </clipPath>
  </defs>
</svg>
