<svg width="257" height="48" viewBox="0 0 257 48" fill="none" xmlns="http://www.w3.org/2000/svg">
<g clip-path="url(#clip0_13_841)">
<path d="M2.38509 19.2095C2.21538 20.1033 3.24498 21.8525 4.12524 22.1897C7.61232 23.527 9.31853 26.4823 11.165 29.2906C11.9389 30.4627 12.4979 30.2274 13.2197 29.5689C14.023 28.8312 15.1522 28.089 15.3989 27.1589C16.3063 23.6764 19.3838 24.8146 21.5245 24.0452C25.0636 22.7712 26.3308 25.7673 27.512 27.8944C28.6185 29.8834 29.7771 32.2776 27.9397 34.9274C34.1739 32.9428 36.6608 33.1171 36.2987 39.9713C36.2218 41.4693 37.6338 41.4897 38.2448 41.6979C40.6457 42.5125 41.3381 38.023 44.3659 39.5368C44.8682 39.7858 45.013 37.8578 45.4634 36.9934C45.658 36.6087 45.6987 36.2987 45.4588 35.8167C44.5107 33.9295 44.5808 33.7756 46.7509 34.1105C47.6538 34.2508 48.3055 33.7484 47.8394 33.418C45.5403 31.782 48.1109 28.313 45.2461 26.9779C44.9338 26.8354 44.7189 25.8759 44.8818 25.4573C45.7123 23.2872 44.9112 21.6534 44.1826 19.5172C42.9448 15.8559 40.7181 12.706 39.6048 9.02657C39.2178 7.75484 38.0887 5.65715 36.3802 8.62378C35.8099 9.61265 34.1015 10.6423 32.3726 9.60586C30.2071 8.3115 28.046 11.5949 25.5546 9.69411C25.1858 9.41126 23.3393 10.7282 23.5067 8.39975C23.5656 7.59417 22.7419 7.70053 22.2735 7.79557C18.3587 8.56947 14.7404 7.49234 11.0926 6.26134C9.53803 5.73636 6.69134 8.6894 7.53991 9.92719C9.13071 12.2466 8.02869 12.3801 6.05999 12.6607C3.6342 13.0115 1.77412 14.0185 0.393768 16.4963C-1.24455 19.4607 2.72452 17.3607 2.38509 19.2095Z" fill="#2A4A72"/>
</g>
<path d="M79.202 20H64.99V19.164C65.5033 19.1493 65.914 19.1053 66.222 19.032C66.5447 18.9587 66.794 18.834 66.97 18.658C67.146 18.482 67.2633 18.2327 67.322 17.91C67.3807 17.5873 67.41 17.1693 67.41 16.656V6.404C67.41 5.89067 67.3807 5.48 67.322 5.172C67.278 4.84933 67.1753 4.6 67.014 4.424C66.8673 4.23333 66.6473 4.10867 66.354 4.05C66.0607 3.97667 65.6793 3.92533 65.21 3.896V3.06H71.898V3.896C71.4287 3.91067 71.0473 3.95467 70.754 4.028C70.4753 4.10133 70.2553 4.23333 70.094 4.424C69.9473 4.61467 69.8447 4.87867 69.786 5.216C69.742 5.55333 69.72 6.00067 69.72 6.558V16.04C69.72 16.656 69.7787 17.162 69.896 17.558C70.028 17.9393 70.2407 18.24 70.534 18.46C70.842 18.6653 71.2453 18.812 71.744 18.9C72.2427 18.9733 72.8733 19.01 73.636 19.01C74.472 19.01 75.176 18.966 75.748 18.878C76.32 18.7753 76.7967 18.6067 77.178 18.372C77.574 18.1227 77.882 17.7853 78.102 17.36C78.3367 16.92 78.5347 16.3553 78.696 15.666H79.532L79.202 20ZM90.1704 11.86C90.1704 11.2587 90.1557 10.7893 90.1264 10.452C90.097 10.1 90.0164 9.836 89.8844 9.66C89.767 9.46933 89.5837 9.34467 89.3344 9.286C89.0997 9.21267 88.7697 9.154 88.3444 9.11V8.34H92.3264V15.094C92.3264 15.93 92.3337 16.612 92.3484 17.14C92.3777 17.668 92.4144 18.064 92.4584 18.328C92.4877 18.5187 92.5317 18.6727 92.5904 18.79C92.6637 18.8927 92.7664 18.9807 92.8984 19.054C93.0304 19.1127 93.199 19.1567 93.4044 19.186C93.6244 19.2007 93.903 19.208 94.2404 19.208V19.978L90.6104 20.242L90.3684 17.602H90.2804C89.723 18.5113 89.0777 19.1787 88.3444 19.604C87.6257 20.0147 86.8704 20.22 86.0784 20.22C85.4624 20.22 84.861 20.1027 84.2744 19.868C83.7024 19.6333 83.2697 19.318 82.9764 18.922C82.727 18.5993 82.5437 18.152 82.4264 17.58C82.3237 17.008 82.2724 16.2673 82.2724 15.358V11.86C82.2724 11.2587 82.2577 10.7893 82.2284 10.452C82.199 10.1 82.1184 9.836 81.9864 9.66C81.869 9.46933 81.6857 9.34467 81.4364 9.286C81.2017 9.21267 80.8717 9.154 80.4464 9.11V8.34H84.4284V14.346C84.4284 15.9447 84.6117 17.1033 84.9784 17.822C85.3597 18.5407 85.961 18.9 86.7824 18.9C88.073 18.9 89.0777 18.0567 89.7964 16.37C89.8697 16.194 89.9284 16.0327 89.9724 15.886C90.0164 15.7393 90.053 15.578 90.0824 15.402C90.1117 15.226 90.1337 15.028 90.1484 14.808C90.163 14.588 90.1704 14.324 90.1704 14.016V11.86ZM103.347 10.936C103.699 10.496 103.875 10.122 103.875 9.814C103.875 9.34467 103.442 9.11 102.577 9.11V8.34H107.395V9.11C107.131 9.11 106.889 9.13933 106.669 9.198C106.463 9.25667 106.258 9.352 106.053 9.484C105.847 9.616 105.635 9.79933 105.415 10.034C105.209 10.254 104.975 10.5327 104.711 10.87L102.445 13.752L105.371 17.602C105.825 18.2033 106.243 18.6287 106.625 18.878C107.021 19.1127 107.439 19.23 107.879 19.23V20H102.027V19.23C102.555 19.23 102.921 19.1933 103.127 19.12C103.332 19.032 103.435 18.8707 103.435 18.636C103.435 18.5333 103.369 18.3867 103.237 18.196C103.119 17.9907 102.914 17.6973 102.621 17.316L101.081 15.336L99.2107 17.712C98.9907 17.976 98.8807 18.24 98.8807 18.504C98.8807 18.7093 98.9687 18.8853 99.1447 19.032C99.3207 19.164 99.5993 19.23 99.9807 19.23V20H94.9427V19.23C95.28 19.23 95.5807 19.2007 95.8447 19.142C96.1087 19.0833 96.358 18.9807 96.5927 18.834C96.842 18.6873 97.0913 18.482 97.3407 18.218C97.6047 17.954 97.898 17.624 98.2207 17.228L100.465 14.478L97.5387 10.32C97.2013 9.85067 96.8933 9.53533 96.6147 9.374C96.336 9.198 95.984 9.11 95.5587 9.11V8.34H100.971V9.11C100.575 9.11 100.289 9.16133 100.113 9.264C99.9367 9.352 99.8487 9.47667 99.8487 9.638C99.8487 9.858 99.988 10.166 100.267 10.562L101.851 12.872L103.347 10.936ZM118.315 11.86C118.315 11.2587 118.3 10.7893 118.271 10.452C118.242 10.1 118.161 9.836 118.029 9.66C117.912 9.46933 117.728 9.34467 117.479 9.286C117.244 9.21267 116.914 9.154 116.489 9.11V8.34H120.471V15.094C120.471 15.93 120.478 16.612 120.493 17.14C120.522 17.668 120.559 18.064 120.603 18.328C120.632 18.5187 120.676 18.6727 120.735 18.79C120.808 18.8927 120.911 18.9807 121.043 19.054C121.175 19.1127 121.344 19.1567 121.549 19.186C121.769 19.2007 122.048 19.208 122.385 19.208V19.978L118.755 20.242L118.513 17.602H118.425C117.868 18.5113 117.222 19.1787 116.489 19.604C115.77 20.0147 115.015 20.22 114.223 20.22C113.607 20.22 113.006 20.1027 112.419 19.868C111.847 19.6333 111.414 19.318 111.121 18.922C110.872 18.5993 110.688 18.152 110.571 17.58C110.468 17.008 110.417 16.2673 110.417 15.358V11.86C110.417 11.2587 110.402 10.7893 110.373 10.452C110.344 10.1 110.263 9.836 110.131 9.66C110.014 9.46933 109.83 9.34467 109.581 9.286C109.346 9.21267 109.016 9.154 108.591 9.11V8.34H112.573V14.346C112.573 15.9447 112.756 17.1033 113.123 17.822C113.504 18.5407 114.106 18.9 114.927 18.9C116.218 18.9 117.222 18.0567 117.941 16.37C118.014 16.194 118.073 16.0327 118.117 15.886C118.161 15.7393 118.198 15.578 118.227 15.402C118.256 15.226 118.278 15.028 118.293 14.808C118.308 14.588 118.315 14.324 118.315 14.016V11.86ZM127.751 16.502C127.751 17.1033 127.766 17.58 127.795 17.932C127.825 18.284 127.898 18.5553 128.015 18.746C128.147 18.922 128.331 19.0393 128.565 19.098C128.8 19.1567 129.13 19.2007 129.555 19.23V20H123.703V19.23C124.129 19.2153 124.466 19.1787 124.715 19.12C124.965 19.0467 125.155 18.922 125.287 18.746C125.419 18.57 125.5 18.3207 125.529 17.998C125.573 17.6607 125.595 17.2133 125.595 16.656V14.082C125.595 13.0847 125.581 12.3073 125.551 11.75C125.537 11.1927 125.463 10.782 125.331 10.518C125.214 10.254 125.023 10.1 124.759 10.056C124.495 9.99733 124.129 9.968 123.659 9.968V9.198L127.509 8.362L127.817 11.09H127.905C128.096 10.65 128.331 10.2467 128.609 9.88C128.903 9.51333 129.218 9.20533 129.555 8.956C129.893 8.692 130.245 8.48667 130.611 8.34C130.978 8.19333 131.352 8.12 131.733 8.12C132.203 8.12 132.569 8.23733 132.833 8.472C133.112 8.692 133.251 8.99267 133.251 9.374C133.251 9.726 133.141 10.0047 132.921 10.21C132.701 10.4007 132.386 10.496 131.975 10.496C131.741 10.496 131.543 10.4667 131.381 10.408C131.22 10.3493 131.073 10.2907 130.941 10.232C130.824 10.1587 130.707 10.0927 130.589 10.034C130.487 9.97533 130.369 9.946 130.237 9.946C129.841 9.946 129.445 10.2027 129.049 10.716C128.653 11.2147 128.345 11.8527 128.125 12.63C128.008 13.0553 127.913 13.5393 127.839 14.082C127.781 14.61 127.751 15.1673 127.751 15.754V16.502ZM139.534 23.454C138.859 24.9647 137.81 25.72 136.388 25.72C135.464 25.72 135.002 25.3753 135.002 24.686C135.002 24.3193 135.126 24.048 135.376 23.872C135.64 23.7107 136.116 23.5713 136.806 23.454C137.114 23.41 137.378 23.344 137.598 23.256C137.818 23.1827 138.016 23.08 138.192 22.948C138.368 22.8307 138.522 22.6767 138.654 22.486C138.8 22.2953 138.94 22.0607 139.072 21.782L139.842 20.242L135.618 11.068C135.427 10.6573 135.258 10.3347 135.112 10.1C134.98 9.85067 134.833 9.66 134.672 9.528C134.525 9.38133 134.356 9.286 134.166 9.242C133.975 9.18333 133.733 9.13933 133.44 9.11V8.34H139.27V9.11C138.287 9.11 137.796 9.352 137.796 9.836C137.796 10.0267 137.854 10.3273 137.972 10.738C138.089 11.1487 138.236 11.5667 138.412 11.992L140.832 17.844H140.942L142.944 12.894C143.134 12.41 143.288 12.014 143.406 11.706C143.538 11.398 143.633 11.1487 143.692 10.958C143.765 10.7527 143.809 10.584 143.824 10.452C143.853 10.32 143.868 10.1953 143.868 10.078C143.868 9.69667 143.758 9.44 143.538 9.308C143.332 9.176 142.929 9.11 142.328 9.11V8.34H147.168V9.11C146.889 9.11 146.654 9.14667 146.464 9.22C146.273 9.29333 146.075 9.462 145.87 9.726C145.679 9.97533 145.459 10.342 145.21 10.826C144.975 11.31 144.682 11.9627 144.33 12.784L139.534 23.454ZM161.148 7.306C161.148 8.08333 161.023 8.78 160.774 9.396C160.525 10.012 160.129 10.5327 159.586 10.958C159.058 11.3833 158.361 11.7133 157.496 11.948C156.645 12.1827 155.604 12.3 154.372 12.3H152.392V16.546C152.392 17.0887 152.421 17.536 152.48 17.888C152.553 18.2253 152.693 18.4893 152.898 18.68C153.118 18.8707 153.426 19.0027 153.822 19.076C154.233 19.1347 154.768 19.164 155.428 19.164V20H147.662V19.164C148.175 19.1493 148.586 19.1053 148.894 19.032C149.217 18.9587 149.466 18.834 149.642 18.658C149.818 18.482 149.935 18.2327 149.994 17.91C150.053 17.5873 150.082 17.1693 150.082 16.656V6.404C150.082 5.89067 150.053 5.48 149.994 5.172C149.95 4.84933 149.847 4.6 149.686 4.424C149.539 4.23333 149.319 4.10867 149.026 4.05C148.733 3.97667 148.351 3.92533 147.882 3.896V3.06H154.79C156.814 3.06 158.376 3.434 159.476 4.182C160.591 4.93 161.148 5.97133 161.148 7.306ZM152.392 11.2H153.954C155.421 11.2 156.506 10.9213 157.21 10.364C157.929 9.792 158.288 8.86067 158.288 7.57C158.288 6.32333 158.002 5.436 157.43 4.908C156.873 4.36533 155.993 4.094 154.79 4.094H152.766C152.517 4.094 152.392 4.21867 152.392 4.468V11.2ZM169.196 13.488C168.36 13.8107 167.648 14.126 167.062 14.434C166.49 14.742 166.028 15.05 165.676 15.358C165.324 15.666 165.067 15.974 164.906 16.282C164.759 16.59 164.686 16.9053 164.686 17.228C164.686 17.712 164.847 18.108 165.17 18.416C165.492 18.724 165.918 18.878 166.446 18.878C166.827 18.878 167.179 18.7827 167.502 18.592C167.839 18.4013 168.132 18.1447 168.382 17.822C168.631 17.4847 168.829 17.096 168.976 16.656C169.122 16.2013 169.196 15.7247 169.196 15.226V13.488ZM169.196 12.542V11.64C169.196 9.85067 168.433 8.956 166.908 8.956C166.658 8.956 166.446 8.978 166.27 9.022C166.094 9.066 165.947 9.13933 165.83 9.242C165.712 9.34467 165.602 9.49133 165.5 9.682C165.412 9.87267 165.324 10.1073 165.236 10.386C165.074 10.8113 164.913 11.0973 164.752 11.244C164.605 11.376 164.385 11.442 164.092 11.442C163.358 11.442 162.992 11.0753 162.992 10.342C162.992 9.638 163.366 9.09533 164.114 8.714C164.862 8.318 165.925 8.12 167.304 8.12C168.77 8.12 169.812 8.384 170.428 8.912C171.044 9.42533 171.352 10.3053 171.352 11.552V16.48C171.352 18.152 171.682 18.988 172.342 18.988C172.547 18.988 172.745 18.966 172.936 18.922C173.126 18.8633 173.288 18.724 173.42 18.504L173.728 19.032C173.552 19.3693 173.229 19.6553 172.76 19.89C172.29 20.11 171.799 20.22 171.286 20.22C170.64 20.22 170.156 20.0147 169.834 19.604C169.526 19.1933 169.372 18.614 169.372 17.866H169.262C168.88 18.5847 168.352 19.1567 167.678 19.582C167.003 19.9927 166.255 20.198 165.434 20.198C164.51 20.198 163.784 19.9633 163.256 19.494C162.728 19.0247 162.464 18.394 162.464 17.602C162.464 17.25 162.522 16.9127 162.64 16.59C162.772 16.2673 162.977 15.9593 163.256 15.666C163.534 15.3727 163.901 15.0867 164.356 14.808C164.81 14.5147 165.368 14.2213 166.028 13.928L169.196 12.542ZM174.579 9.726V8.912C175.357 8.45733 175.965 8.00267 176.405 7.548C176.845 7.09333 177.183 6.55067 177.417 5.92H178.055V8.692H181.003V9.726H178.055V16.414C178.055 16.9273 178.077 17.36 178.121 17.712C178.18 18.064 178.268 18.35 178.385 18.57C178.503 18.7753 178.657 18.922 178.847 19.01C179.038 19.098 179.28 19.142 179.573 19.142C179.94 19.142 180.248 19.0687 180.497 18.922C180.761 18.7607 181.018 18.4967 181.267 18.13L181.817 18.548C181.612 19.0907 181.253 19.5087 180.739 19.802C180.241 20.0807 179.617 20.22 178.869 20.22C177.901 20.22 177.161 19.9927 176.647 19.538C176.149 19.0687 175.899 18.4013 175.899 17.536V9.726H174.579ZM189.692 13.488C188.856 13.8107 188.144 14.126 187.558 14.434C186.986 14.742 186.524 15.05 186.172 15.358C185.82 15.666 185.563 15.974 185.402 16.282C185.255 16.59 185.182 16.9053 185.182 17.228C185.182 17.712 185.343 18.108 185.666 18.416C185.988 18.724 186.414 18.878 186.942 18.878C187.323 18.878 187.675 18.7827 187.998 18.592C188.335 18.4013 188.628 18.1447 188.878 17.822C189.127 17.4847 189.325 17.096 189.472 16.656C189.618 16.2013 189.692 15.7247 189.692 15.226V13.488ZM189.692 12.542V11.64C189.692 9.85067 188.929 8.956 187.404 8.956C187.154 8.956 186.942 8.978 186.766 9.022C186.59 9.066 186.443 9.13933 186.326 9.242C186.208 9.34467 186.098 9.49133 185.996 9.682C185.908 9.87267 185.82 10.1073 185.732 10.386C185.57 10.8113 185.409 11.0973 185.248 11.244C185.101 11.376 184.881 11.442 184.588 11.442C183.854 11.442 183.488 11.0753 183.488 10.342C183.488 9.638 183.862 9.09533 184.61 8.714C185.358 8.318 186.421 8.12 187.8 8.12C189.266 8.12 190.308 8.384 190.924 8.912C191.54 9.42533 191.848 10.3053 191.848 11.552V16.48C191.848 18.152 192.178 18.988 192.838 18.988C193.043 18.988 193.241 18.966 193.432 18.922C193.622 18.8633 193.784 18.724 193.916 18.504L194.224 19.032C194.048 19.3693 193.725 19.6553 193.256 19.89C192.786 20.11 192.295 20.22 191.782 20.22C191.136 20.22 190.652 20.0147 190.33 19.604C190.022 19.1933 189.868 18.614 189.868 17.866H189.758C189.376 18.5847 188.848 19.1567 188.174 19.582C187.499 19.9927 186.751 20.198 185.93 20.198C185.006 20.198 184.28 19.9633 183.752 19.494C183.224 19.0247 182.96 18.394 182.96 17.602C182.96 17.25 183.018 16.9127 183.136 16.59C183.268 16.2673 183.473 15.9593 183.752 15.666C184.03 15.3727 184.397 15.0867 184.852 14.808C185.306 14.5147 185.864 14.2213 186.524 13.928L189.692 12.542ZM200.223 15.27C200.839 15.27 201.316 14.9913 201.653 14.434C202.005 13.8767 202.181 13.092 202.181 12.08C202.181 11.0827 202.005 10.3127 201.653 9.77C201.316 9.21267 200.832 8.934 200.201 8.934C199.571 8.934 199.065 9.21267 198.683 9.77C198.317 10.3273 198.133 11.09 198.133 12.058C198.133 13.026 198.324 13.8033 198.705 14.39C199.087 14.9767 199.593 15.27 200.223 15.27ZM199.013 17.844C199.365 17.8733 199.688 17.9027 199.981 17.932C200.275 17.9613 200.561 17.9907 200.839 18.02C201.133 18.0493 201.419 18.086 201.697 18.13C201.991 18.174 202.306 18.218 202.643 18.262C203.699 18.4233 204.543 18.834 205.173 19.494C205.819 20.1393 206.141 20.9533 206.141 21.936C206.141 23.168 205.65 24.1067 204.667 24.752C203.699 25.3973 202.291 25.72 200.443 25.72C199.622 25.72 198.867 25.6467 198.177 25.5C197.503 25.3533 196.923 25.1407 196.439 24.862C195.955 24.598 195.574 24.2753 195.295 23.894C195.031 23.5127 194.899 23.0947 194.899 22.64C194.899 22.332 194.951 22.046 195.053 21.782C195.156 21.518 195.295 21.2833 195.471 21.078C195.647 20.8873 195.853 20.7333 196.087 20.616C196.337 20.4987 196.593 20.44 196.857 20.44C197.356 20.44 197.803 20.594 198.199 20.902C197.803 20.99 197.481 21.2027 197.231 21.54C196.982 21.892 196.857 22.288 196.857 22.728C196.857 23.3733 197.173 23.872 197.803 24.224C198.449 24.576 199.358 24.752 200.531 24.752C203.039 24.752 204.293 23.982 204.293 22.442C204.293 21.8553 204.095 21.364 203.699 20.968C203.303 20.5867 202.834 20.3593 202.291 20.286C201.939 20.242 201.573 20.1907 201.191 20.132C200.825 20.088 200.458 20.044 200.091 20C199.739 19.956 199.409 19.9193 199.101 19.89C198.793 19.8607 198.544 19.8313 198.353 19.802C197.532 19.714 196.909 19.494 196.483 19.142C196.058 18.79 195.845 18.306 195.845 17.69C195.845 17.1767 196.058 16.722 196.483 16.326C196.909 15.93 197.444 15.6807 198.089 15.578V15.49C197.767 15.358 197.466 15.1747 197.187 14.94C196.909 14.6907 196.667 14.412 196.461 14.104C196.271 13.796 196.117 13.466 195.999 13.114C195.882 12.7473 195.823 12.3733 195.823 11.992C195.823 11.4347 195.926 10.9213 196.131 10.452C196.351 9.98267 196.652 9.57933 197.033 9.242C197.429 8.89 197.891 8.61867 198.419 8.428C198.947 8.22267 199.527 8.12 200.157 8.12C200.803 8.12 201.411 8.22267 201.983 8.428C202.555 8.61867 203.047 8.90467 203.457 9.286C203.956 8.87533 204.396 8.582 204.777 8.406C205.159 8.21533 205.518 8.12 205.855 8.12C206.383 8.12 206.801 8.24467 207.109 8.494C207.432 8.72867 207.593 9.05133 207.593 9.462C207.593 9.71133 207.505 9.90933 207.329 10.056C207.168 10.2027 206.963 10.276 206.713 10.276C206.508 10.276 206.339 10.2393 206.207 10.166C206.075 10.0927 205.951 10.0193 205.833 9.946C205.731 9.858 205.621 9.77733 205.503 9.704C205.386 9.63067 205.239 9.594 205.063 9.594C204.711 9.594 204.352 9.71867 203.985 9.968C204.337 10.5107 204.513 11.1927 204.513 12.014C204.513 13.2607 204.125 14.2433 203.347 14.962C202.57 15.666 201.404 16.0767 199.849 16.194C198.955 16.2673 198.331 16.3627 197.979 16.48C197.627 16.5973 197.451 16.81 197.451 17.118C197.451 17.3527 197.583 17.5287 197.847 17.646C198.111 17.7487 198.5 17.8147 199.013 17.844ZM214.408 8.12C215.244 8.12 216.036 8.274 216.784 8.582C217.532 8.87533 218.184 9.286 218.742 9.814C219.314 10.342 219.761 10.9727 220.084 11.706C220.421 12.4247 220.59 13.2167 220.59 14.082C220.59 14.9767 220.421 15.798 220.084 16.546C219.761 17.294 219.314 17.9393 218.742 18.482C218.184 19.0247 217.532 19.45 216.784 19.758C216.036 20.066 215.244 20.22 214.408 20.22C213.586 20.22 212.802 20.0733 212.054 19.78C211.32 19.472 210.675 19.0467 210.118 18.504C209.56 17.9613 209.12 17.316 208.798 16.568C208.475 15.8053 208.314 14.9767 208.314 14.082C208.314 13.2167 208.475 12.4173 208.798 11.684C209.12 10.9507 209.56 10.32 210.118 9.792C210.675 9.264 211.32 8.85333 212.054 8.56C212.802 8.26667 213.586 8.12 214.408 8.12ZM214.408 9.176C213.865 9.176 213.366 9.29333 212.912 9.528C212.472 9.76267 212.09 10.1 211.768 10.54C211.46 10.9653 211.218 11.486 211.042 12.102C210.88 12.7033 210.8 13.3707 210.8 14.104C210.8 14.8667 210.88 15.556 211.042 16.172C211.218 16.788 211.46 17.316 211.768 17.756C212.09 18.1813 212.472 18.5113 212.912 18.746C213.352 18.9807 213.85 19.098 214.408 19.098C214.965 19.098 215.471 18.9807 215.926 18.746C216.38 18.5113 216.769 18.174 217.092 17.734C217.414 17.294 217.664 16.766 217.84 16.15C218.016 15.534 218.104 14.852 218.104 14.104C218.104 13.3707 218.016 12.7033 217.84 12.102C217.664 11.5007 217.414 10.9873 217.092 10.562C216.769 10.122 216.38 9.78467 215.926 9.55C215.471 9.30067 214.965 9.176 214.408 9.176ZM226.404 16.546C226.404 17.1473 226.419 17.624 226.448 17.976C226.478 18.3133 226.551 18.5773 226.668 18.768C226.8 18.944 226.984 19.0613 227.218 19.12C227.468 19.1787 227.805 19.2227 228.23 19.252V20H222.466V19.252C222.877 19.2227 223.2 19.1787 223.434 19.12C223.684 19.0613 223.874 18.944 224.006 18.768C224.138 18.592 224.219 18.3427 224.248 18.02C224.292 17.6973 224.314 17.2573 224.314 16.7V13.774C224.314 12.0287 224.27 10.9653 224.182 10.584C224.138 10.3933 224.08 10.2393 224.006 10.122C223.948 9.99 223.852 9.89467 223.72 9.836C223.588 9.76267 223.42 9.71867 223.214 9.704C223.009 9.67467 222.745 9.66 222.422 9.66V8.956L225.942 8.12L226.206 10.298H226.294C226.852 9.60867 227.504 9.07333 228.252 8.692C229 8.31067 229.814 8.12 230.694 8.12C231.369 8.12 231.985 8.23 232.542 8.45C233.1 8.67 233.525 8.97067 233.818 9.352C234.068 9.68933 234.244 10.1293 234.346 10.672C234.449 11.2 234.5 11.9333 234.5 12.872V16.546C234.5 17.1473 234.515 17.624 234.544 17.976C234.588 18.3133 234.669 18.5773 234.786 18.768C234.904 18.944 235.08 19.0613 235.314 19.12C235.564 19.1787 235.886 19.2227 236.282 19.252V20H230.584V19.252C230.995 19.2373 231.318 19.2007 231.552 19.142C231.802 19.0687 231.985 18.944 232.102 18.768C232.234 18.592 232.315 18.3427 232.344 18.02C232.388 17.6827 232.41 17.2427 232.41 16.7V13.796C232.41 12.96 232.366 12.256 232.278 11.684C232.19 11.112 232.044 10.65 231.838 10.298C231.648 9.946 231.391 9.69667 231.068 9.55C230.746 9.38867 230.357 9.308 229.902 9.308C229.242 9.308 228.634 9.484 228.076 9.836C227.534 10.1733 227.108 10.6427 226.8 11.244C226.727 11.3907 226.661 11.53 226.602 11.662C226.558 11.794 226.522 11.948 226.492 12.124C226.463 12.3 226.441 12.5053 226.426 12.74C226.412 12.96 226.404 13.246 226.404 13.598V16.546ZM241.836 16.502C241.836 17.074 241.858 17.536 241.902 17.888C241.961 18.2253 242.064 18.4967 242.21 18.702C242.357 18.8927 242.562 19.0247 242.826 19.098C243.09 19.1713 243.442 19.2153 243.882 19.23V20H237.568V19.23C238.008 19.2153 238.368 19.1713 238.646 19.098C238.925 19.01 239.138 18.878 239.284 18.702C239.446 18.5113 239.548 18.2547 239.592 17.932C239.651 17.5947 239.68 17.1693 239.68 16.656V13.84C239.68 12.9893 239.666 12.2927 239.636 11.75C239.622 11.1927 239.585 10.8113 239.526 10.606C239.453 10.2687 239.284 10.0413 239.02 9.924C238.756 9.792 238.258 9.726 237.524 9.726V8.956L241.836 8.12V16.502ZM239.306 3.654C239.306 3.27267 239.438 2.95 239.702 2.686C239.966 2.422 240.289 2.29 240.67 2.29C241.052 2.29 241.374 2.422 241.638 2.686C241.902 2.95 242.034 3.27267 242.034 3.654C242.034 4.03533 241.902 4.358 241.638 4.622C241.374 4.886 241.052 5.018 240.67 5.018C240.289 5.018 239.966 4.886 239.702 4.622C239.438 4.358 239.306 4.03533 239.306 3.654ZM251.996 13.488C251.16 13.8107 250.449 14.126 249.862 14.434C249.29 14.742 248.828 15.05 248.476 15.358C248.124 15.666 247.868 15.974 247.706 16.282C247.56 16.59 247.486 16.9053 247.486 17.228C247.486 17.712 247.648 18.108 247.97 18.416C248.293 18.724 248.718 18.878 249.246 18.878C249.628 18.878 249.98 18.7827 250.302 18.592C250.64 18.4013 250.933 18.1447 251.182 17.822C251.432 17.4847 251.63 17.096 251.776 16.656C251.923 16.2013 251.996 15.7247 251.996 15.226V13.488ZM251.996 12.542V11.64C251.996 9.85067 251.234 8.956 249.708 8.956C249.459 8.956 249.246 8.978 249.07 9.022C248.894 9.066 248.748 9.13933 248.63 9.242C248.513 9.34467 248.403 9.49133 248.3 9.682C248.212 9.87267 248.124 10.1073 248.036 10.386C247.875 10.8113 247.714 11.0973 247.552 11.244C247.406 11.376 247.186 11.442 246.892 11.442C246.159 11.442 245.792 11.0753 245.792 10.342C245.792 9.638 246.166 9.09533 246.914 8.714C247.662 8.318 248.726 8.12 250.104 8.12C251.571 8.12 252.612 8.384 253.228 8.912C253.844 9.42533 254.152 10.3053 254.152 11.552V16.48C254.152 18.152 254.482 18.988 255.142 18.988C255.348 18.988 255.546 18.966 255.736 18.922C255.927 18.8633 256.088 18.724 256.22 18.504L256.528 19.032C256.352 19.3693 256.03 19.6553 255.56 19.89C255.091 20.11 254.6 20.22 254.086 20.22C253.441 20.22 252.957 20.0147 252.634 19.604C252.326 19.1933 252.172 18.614 252.172 17.866H252.062C251.681 18.5847 251.153 19.1567 250.478 19.582C249.804 19.9927 249.056 20.198 248.234 20.198C247.31 20.198 246.584 19.9633 246.056 19.494C245.528 19.0247 245.264 18.394 245.264 17.602C245.264 17.25 245.323 16.9127 245.44 16.59C245.572 16.2673 245.778 15.9593 246.056 15.666C246.335 15.3727 246.702 15.0867 247.156 14.808C247.611 14.5147 248.168 14.2213 248.828 13.928L251.996 12.542ZM81.292 31.262H80.39C80.346 30.6313 80.2433 30.1033 80.082 29.678C79.9207 29.2527 79.686 28.9227 79.378 28.688C79.0847 28.4387 78.7107 28.2627 78.256 28.16C77.8013 28.0573 77.2587 28.006 76.628 28.006C76.0853 28.006 75.6453 28.0207 75.308 28.05C74.9853 28.0647 74.736 28.1013 74.56 28.16C74.384 28.2187 74.2667 28.292 74.208 28.38C74.164 28.4533 74.142 28.556 74.142 28.688V40.458C74.142 40.9273 74.1713 41.3307 74.23 41.668C74.3033 42.0053 74.4353 42.284 74.626 42.504C74.8313 42.7093 75.1173 42.8707 75.484 42.988C75.8653 43.0907 76.364 43.1493 76.98 43.164V44H68.664V43.164C69.28 43.1493 69.7787 43.0907 70.16 42.988C70.5413 42.8707 70.8273 42.7093 71.018 42.504C71.2233 42.284 71.3553 42.0053 71.414 41.668C71.4873 41.3307 71.524 40.9273 71.524 40.458V28.688C71.524 28.556 71.4947 28.4533 71.436 28.38C71.392 28.292 71.2893 28.2187 71.128 28.16C70.9813 28.1013 70.7687 28.0647 70.49 28.05C70.2113 28.0207 69.8373 28.006 69.368 28.006C68.796 28.006 68.2607 28.028 67.762 28.072C67.278 28.116 66.8527 28.248 66.486 28.468C66.134 28.6733 65.848 28.996 65.628 29.436C65.408 29.876 65.2907 30.4847 65.276 31.262H64.462V27.06H81.072L81.292 31.262ZM84.9543 40.502C84.9543 41.1033 84.969 41.58 84.9983 41.932C85.0276 42.284 85.101 42.5553 85.2183 42.746C85.3503 42.922 85.5336 43.0393 85.7683 43.098C86.003 43.1567 86.333 43.2007 86.7583 43.23V44H80.9063V43.23C81.3316 43.2153 81.669 43.1787 81.9183 43.12C82.1676 43.0467 82.3583 42.922 82.4903 42.746C82.6223 42.57 82.703 42.3207 82.7323 41.998C82.7763 41.6607 82.7983 41.2133 82.7983 40.656V38.082C82.7983 37.0847 82.7836 36.3073 82.7543 35.75C82.7396 35.1927 82.6663 34.782 82.5343 34.518C82.417 34.254 82.2263 34.1 81.9623 34.056C81.6983 33.9973 81.3316 33.968 80.8623 33.968V33.198L84.7123 32.362L85.0203 35.09H85.1083C85.299 34.65 85.5336 34.2467 85.8123 33.88C86.1056 33.5133 86.421 33.2053 86.7583 32.956C87.0956 32.692 87.4476 32.4867 87.8143 32.34C88.181 32.1933 88.555 32.12 88.9363 32.12C89.4056 32.12 89.7723 32.2373 90.0363 32.472C90.315 32.692 90.4543 32.9927 90.4543 33.374C90.4543 33.726 90.3443 34.0047 90.1243 34.21C89.9043 34.4007 89.589 34.496 89.1783 34.496C88.9436 34.496 88.7456 34.4667 88.5843 34.408C88.423 34.3493 88.2763 34.2907 88.1443 34.232C88.027 34.1587 87.9096 34.0927 87.7923 34.034C87.6896 33.9753 87.5723 33.946 87.4403 33.946C87.0443 33.946 86.6483 34.2027 86.2523 34.716C85.8563 35.2147 85.5483 35.8527 85.3283 36.63C85.211 37.0553 85.1156 37.5393 85.0423 38.082C84.9836 38.61 84.9543 39.1673 84.9543 39.754V40.502ZM98.2327 37.488C97.3967 37.8107 96.6854 38.126 96.0987 38.434C95.5267 38.742 95.0647 39.05 94.7127 39.358C94.3607 39.666 94.104 39.974 93.9427 40.282C93.796 40.59 93.7227 40.9053 93.7227 41.228C93.7227 41.712 93.884 42.108 94.2067 42.416C94.5294 42.724 94.9547 42.878 95.4827 42.878C95.864 42.878 96.216 42.7827 96.5387 42.592C96.876 42.4013 97.1694 42.1447 97.4187 41.822C97.668 41.4847 97.866 41.096 98.0127 40.656C98.1594 40.2013 98.2327 39.7247 98.2327 39.226V37.488ZM98.2327 36.542V35.64C98.2327 33.8507 97.47 32.956 95.9447 32.956C95.6954 32.956 95.4827 32.978 95.3067 33.022C95.1307 33.066 94.984 33.1393 94.8667 33.242C94.7494 33.3447 94.6394 33.4913 94.5367 33.682C94.4487 33.8727 94.3607 34.1073 94.2727 34.386C94.1114 34.8113 93.95 35.0973 93.7887 35.244C93.642 35.376 93.422 35.442 93.1287 35.442C92.3954 35.442 92.0287 35.0753 92.0287 34.342C92.0287 33.638 92.4027 33.0953 93.1507 32.714C93.8987 32.318 94.962 32.12 96.3407 32.12C97.8074 32.12 98.8487 32.384 99.4647 32.912C100.081 33.4253 100.389 34.3053 100.389 35.552V40.48C100.389 42.152 100.719 42.988 101.379 42.988C101.584 42.988 101.782 42.966 101.973 42.922C102.163 42.8633 102.325 42.724 102.457 42.504L102.765 43.032C102.589 43.3693 102.266 43.6553 101.797 43.89C101.327 44.11 100.836 44.22 100.323 44.22C99.6774 44.22 99.1934 44.0147 98.8707 43.604C98.5627 43.1933 98.4087 42.614 98.4087 41.866H98.2987C97.9174 42.5847 97.3894 43.1567 96.7147 43.582C96.04 43.9927 95.292 44.198 94.4707 44.198C93.5467 44.198 92.8207 43.9633 92.2927 43.494C91.7647 43.0247 91.5007 42.394 91.5007 41.602C91.5007 41.25 91.5594 40.9127 91.6767 40.59C91.8087 40.2673 92.014 39.9593 92.2927 39.666C92.5714 39.3727 92.938 39.0867 93.3927 38.808C93.8474 38.5147 94.4047 38.2213 95.0647 37.928L98.2327 36.542ZM104.595 35.068C104.419 34.628 104.257 34.2833 104.111 34.034C103.979 33.77 103.832 33.572 103.671 33.44C103.509 33.308 103.326 33.2273 103.121 33.198C102.93 33.154 102.695 33.1247 102.417 33.11V32.34H108.247V33.11C107.953 33.1247 107.711 33.1393 107.521 33.154C107.33 33.1687 107.176 33.2053 107.059 33.264C106.956 33.308 106.883 33.3813 106.839 33.484C106.795 33.572 106.773 33.704 106.773 33.88C106.773 34.1293 106.802 34.364 106.861 34.584C106.934 34.804 107.007 35.024 107.081 35.244L109.413 41.624H109.501L111.503 36.894C111.811 36.1607 112.031 35.574 112.163 35.134C112.295 34.694 112.361 34.3053 112.361 33.968C112.361 33.6307 112.273 33.4033 112.097 33.286C111.921 33.1687 111.539 33.11 110.953 33.11V32.34H115.331V33.11C115.096 33.11 114.883 33.1687 114.693 33.286C114.502 33.4033 114.333 33.55 114.187 33.726C114.069 33.8873 113.945 34.1073 113.813 34.386C113.695 34.65 113.571 34.9287 113.439 35.222C113.321 35.5153 113.211 35.8087 113.109 36.102C113.006 36.3807 112.911 36.608 112.823 36.784L109.589 44.242H108.313L104.595 35.068ZM126.724 41.954C125.478 43.4647 123.93 44.22 122.082 44.22C121.217 44.22 120.432 44.0807 119.728 43.802C119.024 43.5087 118.416 43.1053 117.902 42.592C117.404 42.064 117.015 41.4407 116.736 40.722C116.458 39.9887 116.318 39.182 116.318 38.302C116.318 37.4073 116.465 36.5787 116.758 35.816C117.052 35.0533 117.462 34.4007 117.99 33.858C118.533 33.3153 119.171 32.89 119.904 32.582C120.652 32.274 121.466 32.12 122.346 32.12C123.769 32.12 124.869 32.5087 125.646 33.286C126.424 34.0487 126.812 35.1487 126.812 36.586C126.812 36.7913 126.768 36.916 126.68 36.96C126.607 37.004 126.424 37.026 126.13 37.026H118.892C118.863 37.1433 118.841 37.29 118.826 37.466C118.812 37.6273 118.804 37.8107 118.804 38.016C118.804 38.7787 118.892 39.4753 119.068 40.106C119.259 40.722 119.523 41.25 119.86 41.69C120.212 42.13 120.623 42.4747 121.092 42.724C121.576 42.9587 122.112 43.076 122.698 43.076C123.314 43.076 123.886 42.944 124.414 42.68C124.942 42.4013 125.485 41.954 126.042 41.338L126.724 41.954ZM123.094 36.014C123.388 36.014 123.622 36.0067 123.798 35.992C123.974 35.9773 124.106 35.948 124.194 35.904C124.282 35.86 124.341 35.8013 124.37 35.728C124.4 35.64 124.414 35.53 124.414 35.398C124.414 34.7233 124.194 34.188 123.754 33.792C123.329 33.3813 122.742 33.176 121.994 33.176C120.41 33.176 119.428 34.122 119.046 36.014H123.094ZM132.45 40.568C132.45 41.1253 132.472 41.5727 132.516 41.91C132.56 42.2473 132.648 42.5113 132.78 42.702C132.926 42.8927 133.124 43.0247 133.374 43.098C133.638 43.1713 133.982 43.2153 134.408 43.23V44H128.336V43.23C128.776 43.2153 129.128 43.1713 129.392 43.098C129.656 43.01 129.861 42.878 130.008 42.702C130.169 42.526 130.272 42.284 130.316 41.976C130.374 41.6533 130.404 41.2353 130.404 40.722V31.24C130.404 30.448 130.389 29.788 130.36 29.26C130.345 28.7173 130.316 28.3507 130.272 28.16C130.198 27.8227 130.022 27.5953 129.744 27.478C129.48 27.3607 128.996 27.302 128.292 27.302V26.554L132.45 25.74V40.568ZM136.898 44H136.414V40.216H136.964C137.536 42.284 138.577 43.318 140.088 43.318C140.675 43.318 141.137 43.1787 141.474 42.9C141.826 42.6067 142.002 42.1667 142.002 41.58C142.002 41.36 141.965 41.1767 141.892 41.03C141.833 40.8687 141.709 40.7073 141.518 40.546C141.342 40.37 141.085 40.172 140.748 39.952C140.425 39.732 139.993 39.4533 139.45 39.116C138.951 38.808 138.519 38.522 138.152 38.258C137.785 37.994 137.477 37.73 137.228 37.466C136.979 37.1873 136.788 36.894 136.656 36.586C136.539 36.278 136.48 35.9187 136.48 35.508C136.48 35.0093 136.561 34.5547 136.722 34.144C136.898 33.7187 137.133 33.3593 137.426 33.066C137.719 32.7727 138.064 32.5453 138.46 32.384C138.856 32.208 139.289 32.12 139.758 32.12C140.154 32.12 140.565 32.186 140.99 32.318C141.415 32.4353 141.789 32.5967 142.112 32.802L142.552 32.34H142.97V35.508H142.398C142.075 34.6133 141.723 33.9753 141.342 33.594C140.961 33.2127 140.491 33.022 139.934 33.022C139.435 33.022 139.032 33.154 138.724 33.418C138.431 33.682 138.284 34.0487 138.284 34.518C138.284 34.7673 138.321 34.9873 138.394 35.178C138.482 35.354 138.614 35.53 138.79 35.706C138.966 35.882 139.186 36.0653 139.45 36.256C139.729 36.432 140.059 36.6373 140.44 36.872C141.071 37.268 141.606 37.62 142.046 37.928C142.501 38.236 142.867 38.544 143.146 38.852C143.425 39.1453 143.63 39.4533 143.762 39.776C143.894 40.0987 143.96 40.4653 143.96 40.876C143.96 41.9173 143.623 42.7387 142.948 43.34C142.273 43.9267 141.386 44.22 140.286 44.22C139.142 44.22 138.159 43.89 137.338 43.23L136.898 44Z" fill="white"/>
<defs>
<clipPath id="clip0_13_841">
<rect width="48" height="48" fill="white"/>
</clipPath>
</defs>
</svg>
