<svg width="48" height="48" fill="none" xmlns="http://www.w3.org/2000/svg">
  <path d="M4.297 9.762a10.396 10.396 0 0 0 2.214 5.27H13l-2.523-2.523 2.033-2.033 2.524 2.523V6.512a10.396 10.396 0 0 0-5.27-2.215 7.164 7.164 0 0 1-5.466 5.465Zm16.487 11.022h6.432v6.432h-6.432v-6.432Zm-8.275 16.943-2.033-2.033 2.726-2.727h-6.69a10.396 10.396 0 0 0-2.215 5.27 7.164 7.164 0 0 1 5.465 5.466 10.395 10.395 0 0 0 5.27-2.215v-6.285l-2.523 2.524Z" fill="#0A1C33"/>
  <path d="M38.708 30.092 32.616 24l6.092-6.092h-8.616V9.292L24 15.384l-6.092-6.092v8.616H9.292L15.384 24l-6.092 6.092h8.616v8.616L24 32.616l6.092 6.092v-8.616h8.616Zm-8.616 0H17.908V17.908h12.184v12.184Z" fill="#0A1C33"/>
  <path d="m11.318 24-6.025-6.025c-1.939.215-3.76.957-5.293 2.16a7.164 7.164 0 0 1 0 7.73 10.395 10.395 0 0 0 5.293 2.16L11.318 24ZM30.025 5.293A10.395 10.395 0 0 0 27.865 0a7.164 7.164 0 0 1-7.73 0 10.397 10.397 0 0 0-2.16 5.293L24 11.318l6.025-6.025Zm5.669 5.183 2.033 2.033-2.523 2.524h6.285a10.396 10.396 0 0 0 2.214-5.27 7.164 7.164 0 0 1-5.465-5.466 10.396 10.396 0 0 0-5.27 2.215v6.69l2.726-2.726ZM48 20.136a10.396 10.396 0 0 0-5.293-2.161L36.682 24l6.025 6.025A10.396 10.396 0 0 0 48 27.865a7.163 7.163 0 0 1 0-7.73Zm-4.297 18.102a10.396 10.396 0 0 0-2.214-5.27H35l2.726 2.726-2.033 2.033-2.727-2.726v6.488a10.397 10.397 0 0 0 5.271 2.214 7.164 7.164 0 0 1 5.465-5.465Zm-25.728 4.469c.215 1.939.957 3.76 2.16 5.293A7.136 7.136 0 0 1 24 46.868c1.346 0 2.692.377 3.864 1.132a10.395 10.395 0 0 0 2.161-5.293L24 36.682l-6.025 6.025Z" fill="#0A1C33"/>
</svg>
