<svg width="38" height="38" fill="none" xmlns="http://www.w3.org/2000/svg">
  <g opacity=".5" clip-path="url('#clip0_4003_1153')" fill="#0A1C33">
    <path d="M3.402 7.728a8.23 8.23 0 0 0 1.754 4.173h5.136L8.294 9.903l1.61-1.61 1.997 1.998V5.155A8.23 8.23 0 0 0 7.73 3.402a5.672 5.672 0 0 1-4.327 4.326Zm13.053 8.726h5.092v5.092h-5.092v-5.092ZM9.903 29.867l-1.609-1.61 2.159-2.158H5.156a8.23 8.23 0 0 0-1.754 4.173 5.671 5.671 0 0 1 4.327 4.326 8.23 8.23 0 0 0 4.172-1.753v-4.976l-1.998 1.998Z"/>
    <path d="M30.643 23.823 25.82 19l4.823-4.823h-6.821v-6.82l-4.823 4.822-4.822-4.823v6.821H7.355L12.178 19l-4.823 4.823h6.822v6.82l4.822-4.822 4.823 4.823v-6.821h6.82Zm-6.821 0h-9.645v-9.646h9.645v9.646Z"/>
    <path d="m8.96 19-4.77-4.77A8.23 8.23 0 0 0 0 15.94a5.671 5.671 0 0 1 0 6.12 8.23 8.23 0 0 0 4.19 1.71L8.96 19ZM23.77 4.19A8.231 8.231 0 0 0 22.06 0a5.671 5.671 0 0 1-6.119 0 8.23 8.23 0 0 0-1.71 4.19L19 8.96l4.77-4.77Zm4.389 3.702 1.61 1.61-1.999 1.997h4.976a8.23 8.23 0 0 0 1.753-4.172A5.671 5.671 0 0 1 30.172 3 8.23 8.23 0 0 0 26 4.753v5.297l2.159-2.158ZM38 15.94a8.231 8.231 0 0 0-4.191-1.71L29.039 19l4.77 4.77A8.23 8.23 0 0 0 38 22.06a5.67 5.67 0 0 1 0-6.12Zm-3.401 14.332a8.23 8.23 0 0 0-1.754-4.173H27.71l2.159 2.159-1.61 1.61-2.158-2.16v5.137a8.23 8.23 0 0 0 4.172 1.753 5.672 5.672 0 0 1 4.327-4.326ZM14.23 33.81A8.23 8.23 0 0 0 15.941 38a5.65 5.65 0 0 1 3.06-.896A5.65 5.65 0 0 1 22.06 38a8.23 8.23 0 0 0 1.71-4.19L19 29.04l-4.77 4.77Z"/>
  </g>
  <defs>
    <clipPath id="clip0_4003_1153">
      <path fill="#fff" d="M0 0h38v38H0z"/>
    </clipPath>
  </defs>
</svg>
