<svg width="52" height="52" viewBox="0 0 52 52" fill="none" xmlns="http://www.w3.org/2000/svg">
<path d="M26 0C20.8577 0 15.8309 1.52487 11.5552 4.38179C7.27951 7.23871 3.94702 11.2994 1.97914 16.0502C0.0112654 20.8011 -0.503621 26.0288 0.499594 31.0723C1.50281 36.1159 3.97907 40.7486 7.61524 44.3848C11.2514 48.0209 15.8842 50.4972 20.9277 51.5004C25.9712 52.5036 31.1989 51.9887 35.9498 50.0209C40.7007 48.053 44.7613 44.7205 47.6182 40.4448C50.4751 36.1691 52 31.1423 52 26C51.9927 19.1066 49.2511 12.4976 44.3767 7.62326C39.5024 2.74889 32.8934 0.00727955 26 0ZM26 48C21.6488 48 17.3953 46.7097 13.7775 44.2923C10.1596 41.8749 7.33979 38.439 5.67466 34.419C4.00953 30.3991 3.57386 25.9756 4.42274 21.708C5.27161 17.4404 7.36691 13.5204 10.4437 10.4437C13.5204 7.3669 17.4404 5.2716 21.708 4.42272C25.9756 3.57385 30.3991 4.00952 34.419 5.67465C38.439 7.33978 41.875 10.1596 44.2923 13.7775C46.7097 17.3953 48 21.6488 48 26C47.9934 31.8327 45.6734 37.4247 41.5491 41.549C37.4247 45.6734 31.8327 47.9934 26 48ZM37.415 24.585C37.601 24.7707 37.7485 24.9913 37.8491 25.2341C37.9498 25.4769 38.0016 25.7372 38.0016 26C38.0016 26.2628 37.9498 26.5231 37.8491 26.7659C37.7485 27.0087 37.601 27.2293 37.415 27.415L29.415 35.415C29.0397 35.7903 28.5307 36.0011 28 36.0011C27.4693 36.0011 26.9603 35.7903 26.585 35.415C26.2097 35.0397 25.9989 34.5307 25.9989 34C25.9989 33.4693 26.2097 32.9603 26.585 32.585L31.1725 28H16C15.4696 28 14.9609 27.7893 14.5858 27.4142C14.2107 27.0391 14 26.5304 14 26C14 25.4696 14.2107 24.9609 14.5858 24.5858C14.9609 24.2107 15.4696 24 16 24H31.1725L26.585 19.415C26.2097 19.0397 25.9989 18.5307 25.9989 18C25.9989 17.4693 26.2097 16.9603 26.585 16.585C26.9603 16.2097 27.4693 15.9989 28 15.9989C28.5307 15.9989 29.0397 16.2097 29.415 16.585L37.415 24.585Z" fill="#000000"/>
</svg>
