<svg width="20" height="20" viewBox="0 0 20 20" fill="none" xmlns="http://www.w3.org/2000/svg">
<path d="M10 0.25C11.9284 0.25 13.8134 0.821828 15.4168 1.89317C17.0202 2.96452 18.2699 4.48726 19.0078 6.26884C19.7458 8.05042 19.9389 10.0108 19.5627 11.9021C19.1864 13.7934 18.2578 15.5307 16.8943 16.8943C15.5307 18.2579 13.7934 19.1865 11.9021 19.5627C10.0108 19.9389 8.05041 19.7458 6.26883 19.0078C4.48725 18.2699 2.96451 17.0202 1.89317 15.4168C0.821823 13.8134 0.249996 11.9284 0.249996 10C0.252726 7.41498 1.28083 4.93661 3.10872 3.10872C4.93661 1.28084 7.41497 0.25273 10 0.25ZM10 18.25C11.6317 18.25 13.2267 17.7661 14.5835 16.8596C15.9402 15.9531 16.9976 14.6646 17.622 13.1571C18.2464 11.6496 18.4098 9.99085 18.0915 8.39051C17.7731 6.79016 16.9874 5.32015 15.8336 4.16637C14.6798 3.01259 13.2098 2.22685 11.6095 1.90852C10.0091 1.59019 8.35035 1.75357 6.84286 2.37799C5.33537 3.00242 4.04689 4.05984 3.14037 5.41655C2.23385 6.77325 1.75 8.3683 1.75 10C1.75248 12.1873 2.62247 14.2843 4.16911 15.8309C5.71574 17.3775 7.81272 18.2475 10 18.25ZM5.71937 9.46937C5.64964 9.53903 5.59432 9.62175 5.55658 9.71279C5.51883 9.80384 5.49941 9.90144 5.49941 10C5.49941 10.0986 5.51883 10.1962 5.55658 10.2872C5.59432 10.3783 5.64964 10.461 5.71937 10.5306L8.71937 13.5306C8.8601 13.6714 9.05097 13.7504 9.25 13.7504C9.44902 13.7504 9.63989 13.6714 9.78062 13.5306C9.92135 13.3899 10.0004 13.199 10.0004 13C10.0004 12.801 9.92135 12.6101 9.78062 12.4694L8.06031 10.75H13.75C13.9489 10.75 14.1397 10.671 14.2803 10.5303C14.421 10.3897 14.5 10.1989 14.5 10C14.5 9.80109 14.421 9.61032 14.2803 9.46967C14.1397 9.32902 13.9489 9.25 13.75 9.25H8.06031L9.78062 7.53063C9.92135 7.38989 10.0004 7.19902 10.0004 7C10.0004 6.80098 9.92135 6.61011 9.78062 6.46937C9.63989 6.32864 9.44902 6.24958 9.25 6.24958C9.05097 6.24958 8.8601 6.32864 8.71937 6.46937L5.71937 9.46937Z" fill="white"/>
</svg>
