<svg width="64" height="64" viewBox="0 0 64 64" fill="none" xmlns="http://www.w3.org/2000/svg">
<path d="M32 6C26.8577 6 21.8309 7.52487 17.5552 10.3818C13.2795 13.2387 9.94702 17.2994 7.97914 22.0502C6.01127 26.8011 5.49638 32.0288 6.49959 37.0723C7.50281 42.1159 9.97907 46.7486 13.6152 50.3848C17.2514 54.0209 21.8842 56.4972 26.9277 57.5004C31.9712 58.5036 37.1989 57.9887 41.9498 56.0209C46.7007 54.053 50.7613 50.7205 53.6182 46.4448C56.4751 42.1691 58 37.1423 58 32C57.9927 25.1066 55.2511 18.4976 50.3767 13.6233C45.5024 8.74889 38.8934 6.00728 32 6ZM32 54C27.6488 54 23.3953 52.7097 19.7775 50.2923C16.1596 47.8749 13.3398 44.439 11.6747 40.419C10.0095 36.3991 9.57386 31.9756 10.4227 27.708C11.2716 23.4404 13.3669 19.5204 16.4437 16.4437C19.5204 13.3669 23.4404 11.2716 27.708 10.4227C31.9756 9.57385 36.3991 10.0095 40.419 11.6747C44.439 13.3398 47.875 16.1596 50.2923 19.7775C52.7097 23.3953 54 27.6488 54 32C53.9934 37.8327 51.6734 43.4247 47.5491 47.549C43.4247 51.6734 37.8327 53.9934 32 54ZM43.415 30.585C43.601 30.7707 43.7485 30.9913 43.8491 31.2341C43.9498 31.4769 44.0016 31.7372 44.0016 32C44.0016 32.2628 43.9498 32.5231 43.8491 32.7659C43.7485 33.0087 43.601 33.2293 43.415 33.415L35.415 41.415C35.0397 41.7903 34.5307 42.0011 34 42.0011C33.4693 42.0011 32.9603 41.7903 32.585 41.415C32.2097 41.0397 31.9989 40.5307 31.9989 40C31.9989 39.4693 32.2097 38.9603 32.585 38.585L37.1725 34H22C21.4696 34 20.9609 33.7893 20.5858 33.4142C20.2107 33.0391 20 32.5304 20 32C20 31.4696 20.2107 30.9609 20.5858 30.5858C20.9609 30.2107 21.4696 30 22 30H37.1725L32.585 25.415C32.2097 25.0397 31.9989 24.5307 31.9989 24C31.9989 23.4693 32.2097 22.9603 32.585 22.585C32.9603 22.2097 33.4693 21.9989 34 21.9989C34.5307 21.9989 35.0397 22.2097 35.415 22.585L43.415 30.585Z" fill="white"/>
</svg>
