<svg width="38" height="38" viewBox="0 0 38 38" fill="none" xmlns="http://www.w3.org/2000/svg">
<g opacity="0.5" clip-path="url(#clip0_4003_1153)">
<path d="M3.40234 7.72832C3.58663 9.25982 4.19062 10.6951 5.15554 11.9007H10.2919L8.29403 9.90285L9.90354 8.29334L11.9014 10.2912V5.15493C10.6958 4.19001 9.2605 3.58609 7.729 3.40173C7.26142 5.55853 5.55914 7.26081 3.40234 7.72832Z" fill="#0A1C33"/>
<path d="M16.4551 16.4543H21.5465V21.5457H16.4551V16.4543Z" fill="#0A1C33"/>
<path d="M9.90346 29.8673L8.29395 28.2578L10.4526 26.0992H5.15554C4.19062 27.3048 3.5867 28.7401 3.40234 30.2716C5.55921 30.7391 7.26142 32.4413 7.72893 34.5982C9.26043 34.4139 10.6957 33.8099 11.9014 32.845V27.8694L9.90346 29.8673Z" fill="#0A1C33"/>
<path d="M30.6429 23.8227L25.82 19L30.6429 14.1773H23.8219V7.35626L18.9992 12.1792L14.1766 7.35626V14.1773H7.35547L12.1784 19L7.35547 23.8227H14.1766L14.1762 30.6437L18.9992 25.8208L23.8219 30.6437V23.8227H30.6429ZM23.8219 23.8227H14.1766V14.1773H23.8219V23.8227Z" fill="#0A1C33"/>
<path d="M8.96021 19L4.19017 14.2299C2.6554 14.4001 1.2134 14.988 0 15.9407C1.19463 17.7963 1.19455 20.2037 0 22.0593C1.21333 23.012 2.6554 23.5999 4.19024 23.7701L8.96021 19Z" fill="#0A1C33"/>
<path d="M23.7707 4.19024C23.6004 2.65532 23.0126 1.2134 22.0599 0C20.2043 1.19455 17.7969 1.19455 15.9412 0C14.9885 1.2134 14.4007 2.6554 14.2305 4.19024L19.0006 8.96021L23.7707 4.19024Z" fill="#0A1C33"/>
<path d="M28.1586 7.89161L29.7681 9.50112L27.7702 11.499H32.7458C33.7107 10.2934 34.3147 8.85809 34.499 7.32658C32.3421 6.85908 30.6399 5.15687 30.1724 3C28.6409 3.18429 27.2056 3.78828 26 4.7532V10.0503L28.1586 7.89161Z" fill="#0A1C33"/>
<path d="M37.9993 15.9407C36.7859 14.9881 35.3439 14.4002 33.809 14.23L29.0391 19L33.8091 23.7701C35.3439 23.5999 36.7859 23.0121 37.9993 22.0594C36.8046 20.2037 36.8046 17.7963 37.9993 15.9407Z" fill="#0A1C33"/>
<path d="M34.5986 30.2717C34.4143 28.7401 33.8103 27.3049 32.8454 26.0992H27.7091L29.8678 28.2579L28.2583 29.8674L26.0996 27.7087V32.8451C27.3052 33.8101 28.7405 34.414 30.272 34.5983C30.7395 32.4415 32.4418 30.7392 34.5986 30.2717Z" fill="#0A1C33"/>
<path d="M14.2305 33.8098C14.4007 35.3445 14.9885 36.7866 15.9412 38C16.869 37.4027 17.9348 37.104 19.0005 37.104C20.0662 37.104 21.132 37.4027 22.0598 38C23.0125 36.7867 23.6004 35.3446 23.7705 33.8098L19.0006 29.0398L14.2305 33.8098Z" fill="#0A1C33"/>
</g>
<defs>
<clipPath id="clip0_4003_1153">
<rect width="38" height="38" fill="white"/>
</clipPath>
</defs>
</svg>
