<svg width="48" height="48" viewBox="0 0 48 48" fill="none" xmlns="http://www.w3.org/2000/svg">
<path d="M4.29688 9.76215C4.52966 11.6967 5.29259 13.5097 6.51144 15.0326H12.9995L10.4758 12.5089L12.5089 10.4759L15.0326 12.9995V6.51156C13.5097 5.29272 11.6967 4.52987 9.76213 4.297C9.1715 7.02137 7.02125 9.17162 4.29688 9.76215Z" fill="#0A1C33"/>
<path d="M20.7844 20.7844H27.2157V27.2157H20.7844V20.7844Z" fill="#0A1C33"/>
<path d="M12.5088 37.7272L10.4757 35.6941L13.2025 32.9674H6.51144C5.29259 34.4903 4.52975 36.3033 4.29688 38.2378C7.02134 38.8284 9.1715 40.9785 9.76203 43.703C11.6966 43.4702 13.5096 42.7073 15.0325 41.4884V35.2034L12.5088 37.7272Z" fill="#0A1C33"/>
<path d="M38.708 30.0918L32.6158 24L38.708 17.9082H30.0919V9.29211L24.0001 15.3843L17.9084 9.29211V17.9082H9.29224L15.3844 24L9.29224 30.0918H17.9084L17.9079 38.7079L24.0001 32.6157L30.0919 38.7079V30.0918H38.708ZM30.0919 30.0918H17.9084V17.9082H30.0919V30.0918Z" fill="#0A1C33"/>
<path d="M11.3182 24L5.29284 17.9746C3.35419 18.1897 1.53272 18.9323 0 20.1356C1.509 22.4796 1.50891 25.5205 0 27.8645C1.53262 29.0679 3.35419 29.8105 5.29294 30.0254L11.3182 24Z" fill="#0A1C33"/>
<path d="M30.0254 5.29294C29.8104 3.35409 29.0679 1.53272 27.8644 0C25.5205 1.50891 22.4796 1.50891 20.1355 0C18.9322 1.53272 18.1896 3.35419 17.9746 5.29294L24 11.3182L30.0254 5.29294Z" fill="#0A1C33"/>
<path d="M35.6942 10.4759L37.7272 12.5089L35.2036 15.0326H41.4886C42.7074 13.5097 43.4703 11.6967 43.7031 9.76215C40.9787 9.17162 38.8285 7.02147 38.238 4.297C36.3034 4.52978 34.4904 5.29272 32.9675 6.51156V13.2026L35.6942 10.4759Z" fill="#0A1C33"/>
<path d="M48 20.1357C46.4673 18.9323 44.6459 18.1897 42.7071 17.9747L36.6819 24L42.7072 30.0254C44.6459 29.8105 46.4673 29.0679 48.0001 27.8645C46.491 25.5205 46.491 22.4796 48 20.1357Z" fill="#0A1C33"/>
<path d="M43.7031 38.238C43.4703 36.3033 42.7074 34.4904 41.4886 32.9675H35.0006L37.7273 35.6942L35.6942 37.7273L32.9675 35.0006V41.4887C34.4904 42.7075 36.3034 43.4703 38.238 43.7032C38.8285 40.9787 40.9787 38.8285 43.7031 38.238Z" fill="#0A1C33"/>
<path d="M17.9746 42.7071C18.1897 44.6458 18.9322 46.4673 20.1355 48C21.3075 47.2455 22.6538 46.8682 23.9999 46.8682C25.3461 46.8682 26.6923 47.2455 27.8643 48C29.0677 46.4674 29.8103 44.6459 30.0252 42.7071L24 36.6819L17.9746 42.7071Z" fill="#0A1C33"/>
</svg>
