<svg width="52" height="52" viewBox="0 0 52 52" fill="none" xmlns="http://www.w3.org/2000/svg">
<path d="M26 0C31.1423 0 36.1691 1.52487 40.4448 4.38179C44.7205 7.23871 48.053 11.2994 50.0209 16.0502C51.9887 20.8011 52.5036 26.0288 51.5004 31.0723C50.4972 36.1159 48.0209 40.7486 44.3848 44.3848C40.7486 48.0209 36.1158 50.4972 31.0723 51.5004C26.0288 52.5036 20.8011 51.9887 16.0502 50.0209C11.2993 48.053 7.2387 44.7205 4.38178 40.4448C1.52486 36.1691 -1.14441e-05 31.1423 -1.14441e-05 26C0.0072681 19.1066 2.74888 12.4976 7.62325 7.62326C12.4976 2.74889 19.1066 0.00727955 26 0ZM26 48C30.3512 48 34.6047 46.7097 38.2225 44.2923C41.8404 41.8749 44.6602 38.439 46.3253 34.419C47.9905 30.3991 48.4261 25.9756 47.5773 21.708C46.7284 17.4404 44.6331 13.5204 41.5563 10.4437C38.4796 7.3669 34.5596 5.2716 30.292 4.42272C26.0244 3.57385 21.6009 4.00952 17.581 5.67465C13.561 7.33978 10.125 10.1596 7.70766 13.7775C5.29027 17.3953 3.99999 21.6488 3.99999 26C4.00661 31.8327 6.32658 37.4247 10.4509 41.549C14.5753 45.6734 20.1673 47.9934 26 48ZM14.585 24.585C14.399 24.7707 14.2515 24.9913 14.1509 25.2341C14.0502 25.4769 13.9984 25.7372 13.9984 26C13.9984 26.2628 14.0502 26.5231 14.1509 26.7659C14.2515 27.0087 14.399 27.2293 14.585 27.415L22.585 35.415C22.9603 35.7903 23.4693 36.0011 24 36.0011C24.5307 36.0011 25.0397 35.7903 25.415 35.415C25.7903 35.0397 26.0011 34.5307 26.0011 34C26.0011 33.4693 25.7903 32.9603 25.415 32.585L20.8275 28H36C36.5304 28 37.0391 27.7893 37.4142 27.4142C37.7893 27.0391 38 26.5304 38 26C38 25.4696 37.7893 24.9609 37.4142 24.5858C37.0391 24.2107 36.5304 24 36 24H20.8275L25.415 19.415C25.7903 19.0397 26.0011 18.5307 26.0011 18C26.0011 17.4693 25.7903 16.9603 25.415 16.585C25.0397 16.2097 24.5307 15.9989 24 15.9989C23.4693 15.9989 22.9603 16.2097 22.585 16.585L14.585 24.585Z" fill="#507FBB"/>
</svg>
